# xmcd
#
# Track frame offsets:
#	150
#	26769
#	51487
#	72951
#	94678
#	110688
#	127049
#	154987
#	175996
#	189740
#	216496
#	236127
#
# Disc length: 3341 seconds
#
# Revision: 1
# Processed by: cddbd v1.5.2PL0 Copyright (c) Steve Scherf et al.
# Submitted via: audiograbber 1.83.01
#
DISCID=bc0d0b0c
DTITLE=Toscho - Back By Popular Demand
DYEAR=1999
DGENRE=Blues
TTITLE0=A Place To Rest
TTITLE1=Chanel No. 5
TTITLE2=Back By Popular Demand
TTITLE3=Gimme Your Number
TTITLE4=Bo Diddley's Groove
TTITLE5=Kidney Stew
TTITLE6=Forgotten Mines
TTITLE7=Love Here With A Feelin'
TTITLE8=One Good Reason
TTITLE9=Tears On A Postcard
TTITLE10=Tappin' My Feet
TTITLE11=Twang My Note (Duet with Angela Brown - Bonus Track)
EXTD=
EXTT0=
EXTT1=
EXTT2=
EXTT3=
EXTT4=
EXTT5=
EXTT6=
EXTT7=
EXTT8=
EXTT9=
EXTT10=
EXTT11=
PLAYORDER=
